<?xml version="1.0" standalone="no"?>
<!DOCTYPE svg PUBLIC "-//W3C//DTD SVG 20010904//EN"
 "http://www.w3.org/TR/2001/REC-SVG-20010904/DTD/svg10.dtd">
<svg version="1.0" xmlns="http://www.w3.org/2000/svg"
 width="162.000000pt" height="86.000000pt" viewBox="0 0 162.000000 86.000000"
 preserveAspectRatio="xMidYMid meet">

<g transform="translate(0.000000,86.000000) scale(0.100000,-0.100000)"
fill="#000000" stroke="none">
<path d="M0 430 l0 -430 810 0 810 0 0 430 0 430 -810 0 -810 0 0 -430z m1343
163 c3 -86 5 -159 3 -160 -2 -2 -68 29 -146 68 l-144 71 134 88 c74 49 138 89
141 89 3 1 9 -70 12 -156z m-545 -15 c24 -27 49 -83 30 -72 -7 5 -9 1 -6 -13
3 -12 0 -20 -8 -20 -7 0 -10 5 -7 11 3 6 -5 0 -20 -13 -15 -14 -24 -31 -22
-43 4 -17 0 -19 -19 -14 -20 5 -35 -7 -91 -67 -193 -205 -257 -267 -280 -267
-36 0 -68 32 -68 68 0 26 22 55 150 189 216 227 256 263 291 263 17 0 37 -9
50 -22z m-4 -126 c3 -5 -1 -9 -9 -9 -8 0 -12 4 -9 9 3 4 7 8 9 8 2 0 6 -4 9
-8z m111 -322 c3 -6 -1 -7 -9 -4 -18 7 -21 14 -7 14 6 0 13 -4 16 -10z"/>
</g>
</svg>
